<svg width="24" height="26" viewBox="0 0 24 26" fill="none" xmlns="http://www.w3.org/2000/svg">
<g filter="url(#filter0_d)">
<path d="M19.255 13.915C18.7728 13.4852 18.3507 12.9924 18 12.45C17.6171 11.7013 17.3876 10.8836 17.325 10.045V7.57501C17.3283 6.25782 16.8505 4.98475 15.9814 3.995C15.1122 3.00525 13.9116 2.36694 12.605 2.20001V1.55501C12.605 1.37798 12.5347 1.2082 12.4095 1.08302C12.2843 0.957838 12.1145 0.887512 11.9375 0.887512C11.7605 0.887512 11.5907 0.957838 11.4655 1.08302C11.3403 1.2082 11.27 1.37798 11.27 1.55501V2.21001C9.97513 2.38898 8.78899 3.03114 7.93126 4.01757C7.07354 5.00399 6.60237 6.26783 6.605 7.57501V10.045C6.54238 10.8836 6.31289 11.7013 5.93 12.45C5.58544 12.9912 5.1701 13.4839 4.695 13.915C4.64167 13.9619 4.59892 14.0195 4.56961 14.0842C4.5403 14.1489 4.52509 14.219 4.525 14.29V14.97C4.525 15.1026 4.57768 15.2298 4.67145 15.3236C4.76521 15.4173 4.89239 15.47 5.025 15.47H18.925C19.0576 15.47 19.1848 15.4173 19.2786 15.3236C19.3723 15.2298 19.425 15.1026 19.425 14.97V14.29C19.4249 14.219 19.4097 14.1489 19.3804 14.0842C19.3511 14.0195 19.3083 13.9619 19.255 13.915ZM5.565 14.47C6.0302 14.0206 6.4398 13.517 6.785 12.97C7.26731 12.0658 7.54872 11.068 7.61 10.045V7.57501C7.59017 6.98903 7.68846 6.40505 7.89902 5.85785C8.10958 5.31064 8.42811 4.8114 8.83562 4.38986C9.24314 3.96832 9.73132 3.6331 10.2711 3.40415C10.8109 3.1752 11.3912 3.05722 11.9775 3.05722C12.5638 3.05722 13.1441 3.1752 13.6839 3.40415C14.2237 3.6331 14.7119 3.96832 15.1194 4.38986C15.5269 4.8114 15.8454 5.31064 16.056 5.85785C16.2665 6.40505 16.3648 6.98903 16.345 7.57501V10.045C16.4063 11.068 16.6877 12.0658 17.17 12.97C17.5152 13.517 17.9248 14.0206 18.39 14.47H5.565Z" fill="black"/>
<path d="M12 17.14C12.315 17.1327 12.6172 17.0143 12.8533 16.8057C13.0894 16.5971 13.2441 16.3117 13.29 16H10.66C10.7072 16.3202 10.8692 16.6123 11.1157 16.822C11.3621 17.0317 11.6764 17.1447 12 17.14V17.14Z" fill="black"/>
</g>
<defs>
<filter id="filter0_d" x="-1" y="0" width="26" height="26" filterUnits="userSpaceOnUse" color-interpolation-filters="sRGB">
<feFlood flood-opacity="0" result="BackgroundImageFix"/>
<feColorMatrix in="SourceAlpha" type="matrix" values="0 0 0 0 0 0 0 0 0 0 0 0 0 0 0 0 0 0 127 0"/>
<feOffset dy="4"/>
<feGaussianBlur stdDeviation="2"/>
<feColorMatrix type="matrix" values="0 0 0 0 0 0 0 0 0 0 0 0 0 0 0 0 0 0 0.25 0"/>
<feBlend mode="normal" in2="BackgroundImageFix" result="effect1_dropShadow"/>
<feBlend mode="normal" in="SourceGraphic" in2="effect1_dropShadow" result="shape"/>
</filter>
</defs>
</svg>
